<svg version="1.1" id="prefix__Capa_1" xmlns="http://www.w3.org/2000/svg" x="0" y="0" viewBox="0 0 1312.76 220.74" xml:space="preserve"><style>.prefix__st0{fill:#fff}</style><switch><g><path class="prefix__st0" d="M11.59 139.84l22.2-115.67c.65-2.77.99-5.94.99-9.52 0-5.54-1.07-10.42-3.21-14.65h89.27l38.23 130.93 20.48-106.76c.65-2.77.98-5.94.98-9.52 0-5.54-1.07-10.42-3.21-14.65h40.94c-3.12 3.26-5.59 6.88-7.4 10.86-1.81 3.99-3.21 8.43-4.19 13.31l-26.88 140.08h-79.68L59.65 30.72 38.71 139.84c-.65 2.79-.98 6.01-.98 9.62 0 5.59 1.07 10.52 3.21 14.8H0c2.14-2.46 3.7-4.6 4.68-6.41 3.46-5.6 5.76-11.61 6.91-18.01zM360.56 115.17H260.18l-1.97 10.11c-.49 2.46-.74 4.69-.74 6.66 0 3.78 1.24 6.29 3.7 7.52 2.46 1.23 6.58 1.85 12.33 1.85h54.01c7.23 0 12.62-.41 16.16-1.24 3.53-.82 7.19-2.3 10.97-4.44l-9.87 28.61H236.51c-13.15 0-22.69-1.89-28.61-5.68-6.58-4.27-9.87-11.58-9.87-21.95 0-4.1.49-8.63 1.48-13.56l7.65-39.21c2.79-14.64 8.05-25.16 15.78-31.57 7.73-6.41 18.91-9.62 33.54-9.62h74.73c12.99 0 22.4 1.93 28.24 5.8 5.83 3.87 8.75 10.73 8.75 20.59 0 4.11-.49 8.88-1.48 14.31l-6.16 31.82zm-54.25-23.18l2.46-13.07c.49-2.3.74-4.36.74-6.17 0-2.3-.53-4.07-1.6-5.3-1.07-1.23-3.08-1.85-6.04-1.85h-23.43c-3.29 0-5.72.95-7.28 2.84-1.56 1.89-2.75 4.89-3.58 9l-2.96 14.55h41.69zM375.11 126.52l11.84-60.92h-18.5l4.44-22.94h18.5l4.68-25.13L456 15.04l-5.18 27.62h50.31L496.7 65.6h-50.31l-10.85 56.48c-.83 4.6-1.24 7.89-1.24 9.87 0 3.45 1.07 5.84 3.21 7.15 2.14 1.32 6.17 1.97 12.09 1.97h16.03c4.77 0 9.21-.45 13.32-1.36 4.11-.9 8.05-2.59 11.84-5.05l-4.29 12.25s-7.01 17.34-16.36 17.34h-52.6c-14.47 0-24.83-1.48-31.07-4.44-8.39-3.94-12.58-11.42-12.58-22.44 0-1.97.04-3.49.12-4.57.07-1.06.44-3.16 1.1-6.28zM498.42 139.87l22.2-115.49c.65-2.79.99-5.99.99-9.6 0-5.58-1.07-10.5-3.21-14.78h133.18c11.83 0 20.71 1.56 26.63 4.67 7.56 3.94 11.34 10.66 11.34 20.16 0 3.11-.33 6.23-.98 9.34l-2.96 16.23c-2.3 11.97-7.48 20-15.53 24.1-6.09 3.11-15.87 4.67-29.35 4.67 11.34 0 19.48 1.07 24.41 3.21 6.74 2.96 10.12 8.63 10.12 17.02 0 2.47-.25 5.18-.74 8.14l-4.44 22.69c-2.47 12.99-8.39 22.19-17.76 27.62-7.57 4.28-18.34 6.41-32.31 6.41H486.83c2.14-2.46 3.7-4.6 4.68-6.41 3.46-5.58 5.76-11.57 6.91-17.98zm62.89-2.75h30.83c5.59 0 9.7-.74 12.33-2.22 3.28-1.97 5.42-5.51 6.41-10.61l3.21-16.27c.49-2.47.74-4.6.74-6.41 0-2.96-.91-4.93-2.71-5.92-1.81-.99-5.18-1.48-10.11-1.48H569.7l-8.39 42.91zm13.57-70.04h34.03c5.43 0 9.29-1.39 11.6-4.17 1.81-2.12 3.28-6.05 4.44-11.77l1.23-6.37c.33-2.12.62-3.96.87-5.52.25-1.55.37-2.74.37-3.56 0-2.77-.66-4.9-1.97-6.37-1.32-1.47-3.7-2.21-7.15-2.21h-35.76l-7.66 39.97zM683.88 136.44l12.09-63.01c1.31-7.39 2.1-11.9 2.34-13.54.25-1.64.37-3.69.37-6.15 0-4.26-.58-7.87-1.73-10.83h64.62l-17.51 90.81c-.99 4.43-1.65 7.72-1.97 9.85-.83 4.1-1.23 7.39-1.23 9.84 0 2.3.12 3.98.37 5.05.24 1.06.86 2.99 1.85 5.78h-69.55c2.14-2.95 3.78-5.91 4.93-8.86 2.13-5.4 3.94-11.72 5.42-18.94zm83.46-124.12l-3.55 18.51H704.1L710.03 0h47.13c6.51 0 11.41 5.93 10.18 12.32zM784.25 42.67h116.41c8.88 0 15.94 2.46 21.21 7.38 5.26 4.93 7.89 11.49 7.89 19.69 0 2.3-.25 4.84-.74 7.63l-10.85 56.36-2.46 21.42c0 3.11.49 6.15 1.48 9.1h-58.44c-.5-1.48-.83-2.96-.99-4.44-.17-1.48-.25-3.2-.25-5.18v-3.2c-2.3 4.6-5.59 7.89-9.87 9.86-4.28 1.97-9.12 2.96-14.55 2.96h-44.4c-10.69 0-18.7-1.73-24.04-5.19s-8.01-9.48-8.01-18.06v-3.84c0-1.07.33-3.26.99-6.55l3.94-20.78c1.81-9.07 6.01-16 12.58-20.78 6.58-4.78 14.47-7.18 23.67-7.18h60.67c3.45 0 6.13-.53 8.01-1.58 1.89-1.05 3.16-3.2 3.83-6.43.65-3.4-.05-5.62-2.1-6.68-2.06-1.05-5.14-1.58-9.25-1.58h-57.71c-5.59 0-10.28.37-14.06 1.11-3.78.74-7.97 2.26-12.58 4.56l9.62-28.6zm80.41 61.9h-28.61c-5.59 0-9.58 1.16-11.95 3.47-2.38 2.32-4.07 6.37-5.06 12.17l-.99 5.47c-.49 2.32-.74 4.38-.74 6.21 0 3.15.9 5.5 2.71 7.07 1.81 1.57 4.85 2.36 9.13 2.36h14.55c5.59 0 9.58-1.16 11.96-3.48 2.38-2.31 4.07-6.37 5.05-12.16l3.95-21.11zM935.92 136.43l20.22-105.89c.66-3.12 1.32-6.36 1.97-9.73.65-3.36.99-6.69.99-9.97 0-3.61-.66-7.22-1.97-10.83h64.37l-25.65 133.71c-.99 4.43-1.73 8.09-2.22 10.97-.5 2.87-.75 5.79-.75 8.73 0 3.61.66 7.23 1.97 10.84h-69.3c2.14-2.95 3.78-5.91 4.93-8.86 2.15-5.43 3.96-11.75 5.44-18.97zM1172.19 115.17h-100.38l-1.97 10.11c-.5 2.46-.74 4.69-.74 6.66 0 3.78 1.23 6.29 3.7 7.52 2.46 1.23 6.57 1.85 12.33 1.85h54.01c7.23 0 12.62-.41 16.15-1.24 3.54-.82 7.19-2.3 10.97-4.44l-9.86 28.61h-108.27c-13.16 0-22.7-1.89-28.61-5.68-6.58-4.27-9.87-11.58-9.87-21.95 0-4.1.5-8.63 1.49-13.56l7.64-39.21c2.79-14.64 8.05-25.16 15.78-31.57 7.72-6.41 18.91-9.62 33.54-9.62h74.73c12.99 0 22.4 1.93 28.23 5.8 5.84 3.87 8.76 10.73 8.76 20.59 0 4.11-.49 8.88-1.48 14.31l-6.15 31.82zm-54.26-23.18l2.46-13.07c.5-2.3.75-4.36.75-6.17 0-2.3-.54-4.07-1.61-5.3-1.07-1.23-3.08-1.85-6.05-1.85h-23.43c-3.29 0-5.72.95-7.27 2.84-1.57 1.89-2.76 4.89-3.58 9l-2.95 14.55h41.68zM1186.74 126.52l11.83-60.92h-18.5l4.44-22.94h18.5l4.69-25.13 59.93-2.49-5.18 27.62h50.31l-4.44 22.94h-50.31l-10.85 56.48c-.82 4.6-1.23 7.89-1.23 9.87 0 3.45 1.07 5.84 3.2 7.15 2.14 1.32 6.17 1.97 12.08 1.97h16.03c4.77 0 9.21-.45 13.32-1.36 4.11-.9 8.05-2.59 11.84-5.05l-10.36 29.59h-62.88c-14.47 0-24.83-1.48-31.08-4.44-8.38-3.94-12.58-11.42-12.58-22.44 0-1.97.04-3.49.13-4.57.08-1.06.45-3.16 1.11-6.28z"/><g><path class="prefix__st0" d="M32.96 191.98c.9 0 1.49.71 1.33 1.6l-4.62 25.57c-.16.88-1.02 1.6-1.91 1.6h-5.43c-.9 0-1.5-.71-1.34-1.6l4.62-25.57c.16-.88 1.02-1.6 1.91-1.6h5.44zM54.51 204.73l-2.6 14.41c-.16.88-1.02 1.6-1.91 1.6h-5.39c-.9 0-1.5-.71-1.34-1.6l4.62-25.56c.16-.88 1.02-1.6 1.91-1.6h6.87c.48 0 .9.21 1.14.57l8.14 14.46c.21.31.67.22.74-.13l2.4-13.3c.16-.88 1.02-1.6 1.91-1.6h5.39c.9 0 1.5.71 1.34 1.6l-4.62 25.55c-.16.88-1.02 1.6-1.91 1.6h-5.95c-.48 0-.9-.21-1.14-.57l-8.86-15.57c-.21-.29-.68-.21-.74.14zM117.82 193.57l-.75 4.13c-.16.88-1.02 1.6-1.91 1.6h-7.94c-.18 0-.35.15-.38.32l-3.53 19.52c-.16.88-1.02 1.6-1.91 1.6h-5.43c-.9 0-1.5-.71-1.34-1.6l3.53-19.52c.03-.18-.09-.32-.27-.32h-7.94c-.9 0-1.5-.71-1.34-1.6l.74-4.13c.16-.88 1.02-1.6 1.91-1.6h25.2c.92.01 1.52.72 1.36 1.6zM124.86 219.14l4.63-25.62c.16-.88 1.02-1.6 1.92-1.6h24.23c.54 0 .9.43.8.96l-.98 5.43c-.1.53-.61.96-1.15.96h-16.84c-.18 0-.35.15-.38.32l-.53 2.97c-.03.18.09.32.27.32h13.55c.54 0 .9.43.8.96l-.9 4.98c-.09.53-.61.96-1.15.96h-13.55c-.18 0-.35.15-.38.32l-.5 2.77c-.03.18.09.32.27.32h16.84c.54 0 .9.43.8.96l-1.01 5.63c-.1.53-.61.96-1.15.96H126.2c-.9 0-1.5-.72-1.34-1.6zM165.86 220.74c-.9 0-1.5-.71-1.34-1.6l4.63-25.6c.16-.88 1.02-1.6 1.91-1.6h20.51c4.22 0 7.03 3.36 6.27 7.51l-1.18 6.54c-.52 2.84-2.58 5.3-5.19 6.57-.19.09-.28.3-.19.46l3.38 5.88c.45.79-.11 1.75-1.02 1.75-2.83 0-4.58.09-5.73.07-1.97.03-2.62-.05-2.98-.77l-3.09-6.04c-.13-.26-.41-.42-.73-.42l-6.56.01c-.18 0-.35.15-.38.32l-.96 5.31c-.16.88-1.02 1.6-1.91 1.6l-5.44.01zm9.72-14.76c-.03.18.09.32.27.32h10.61c.8 0 1.56-.64 1.7-1.42l.78-4.3c.14-.79-.39-1.42-1.19-1.42h-10.61c-.18 0-.35.15-.38.32l-1.18 6.5zM218.8 204.73l-2.6 14.41c-.16.88-1.02 1.6-1.91 1.6h-5.39c-.9 0-1.5-.71-1.34-1.6l4.62-25.56c.16-.88 1.02-1.6 1.91-1.6h6.87c.48 0 .9.21 1.14.57l8.14 14.46c.21.31.67.22.74-.13l2.4-13.3c.16-.88 1.02-1.6 1.91-1.6h5.39c.9 0 1.5.71 1.34 1.6l-4.62 25.55c-.16.88-1.02 1.6-1.91 1.6h-5.95c-.48 0-.9-.21-1.14-.57l-8.86-15.57c-.2-.29-.68-.21-.74.14zM251.01 219.14l4.63-25.62c.16-.88 1.02-1.6 1.92-1.6h24.23c.54 0 .9.43.8.96l-.98 5.43c-.1.53-.61.96-1.15.96h-16.84c-.18 0-.35.15-.38.32l-.53 2.97c-.03.18.09.32.27.32h13.55c.54 0 .9.43.8.96l-.9 4.98c-.09.53-.61.96-1.15.96h-13.55c-.18 0-.35.15-.38.32l-.5 2.77c-.03.18.09.32.27.32h16.84c.54 0 .9.43.8.96l-1.01 5.63c-.1.53-.61.96-1.15.96h-24.23c-.92 0-1.52-.72-1.36-1.6zM321.78 193.57l-.75 4.13c-.16.88-1.02 1.6-1.91 1.6h-7.94c-.18 0-.35.15-.38.32l-3.53 19.52c-.16.88-1.02 1.6-1.91 1.6h-5.43c-.9 0-1.5-.71-1.34-1.6l3.53-19.52c.03-.18-.09-.32-.27-.32h-7.94c-.9 0-1.5-.71-1.34-1.6l.74-4.13c.16-.88 1.02-1.6 1.91-1.6h25.2c.92.01 1.52.72 1.36 1.6zM367.48 203.52l-1.01 5.69c-.19 1.04-1.18 1.89-2.23 1.89h-5.69c-1.05 0-1.74-.84-1.56-1.89l1-5.69c.19-1.04 1.18-1.89 2.23-1.89h5.69c1.05.01 1.75.85 1.57 1.89zM416.58 191.98c.9 0 1.49.71 1.33 1.6l-4.62 25.57c-.16.88-1.02 1.6-1.91 1.6h-5.43c-.9 0-1.5-.71-1.34-1.6l4.62-25.57c.16-.88 1.02-1.6 1.91-1.6h5.44zM438.13 204.73l-2.6 14.41c-.16.88-1.02 1.6-1.91 1.6h-5.39c-.9 0-1.5-.71-1.34-1.6l4.62-25.56c.16-.88 1.02-1.6 1.91-1.6h6.87c.48 0 .9.21 1.14.57l8.14 14.46c.21.31.67.22.74-.13l2.4-13.3c.16-.88 1.02-1.6 1.91-1.6h5.39c.9 0 1.5.71 1.34 1.6l-4.62 25.55c-.16.88-1.02 1.6-1.91 1.6h-5.95c-.48 0-.9-.21-1.14-.57l-8.86-15.57c-.2-.29-.67-.21-.74.14zM470.34 219.14l4.62-25.57c.16-.88 1.02-1.6 1.91-1.6h24.19c.54 0 .9.43.8.95l-.98 5.42c-.09.53-.61.96-1.15.96h-16.81c-.18 0-.35.15-.38.32l-.54 2.96c-.03.18.09.32.27.32h13.52c.54 0 .9.43.8.96l-.9 4.98c-.1.53-.61.96-1.15.96h-13.52c-.18 0-.35.15-.38.32l-1.63 9.02c-.16.88-1.02 1.6-1.91 1.6h-5.43c-.89 0-1.49-.71-1.33-1.6zM544.09 199.39l-2.5 13.85c-.75 4.14-4.77 7.5-8.99 7.5H516c-4.22 0-7.03-3.36-6.28-7.5l2.5-13.85c.75-4.14 4.77-7.5 8.99-7.5h16.6c4.22-.01 7.03 3.36 6.28 7.5zm-8.87.88c.09-.53-.26-.96-.8-.96h-12.49c-.54 0-1.05.43-1.15.96l-2.17 11.98c-.09.53.26.96.8.96h12.5c.54 0 1.05-.43 1.15-.96l2.16-11.98zM555.07 220.74c-.9 0-1.5-.71-1.34-1.6l4.62-25.6c.16-.88 1.02-1.6 1.91-1.6h20.51c4.22 0 7.03 3.36 6.27 7.51l-1.18 6.54c-.52 2.84-2.58 5.3-5.19 6.57-.19.09-.28.3-.19.46l3.38 5.88c.45.79-.11 1.75-1.02 1.75-2.83 0-4.58.09-5.73.07-1.97.03-2.62-.05-2.98-.77l-3.09-6.04c-.13-.26-.41-.42-.73-.42l-6.57.01c-.18 0-.35.15-.38.32l-.96 5.31c-.16.88-1.02 1.6-1.91 1.6l-5.42.01zm9.72-14.76c-.03.18.09.32.27.32h10.61c.8 0 1.56-.64 1.7-1.42l.78-4.3c.14-.79-.39-1.42-1.19-1.42h-10.61c-.18 0-.35.15-.38.32l-1.18 6.5zM609.55 191.99c.63 0 1.14.36 1.31.93l4.91 17.79c.1.34.55.41.74.13l11.95-17.92c.37-.57 1.01-.93 1.64-.93h6.29c.9 0 1.5.71 1.33 1.6l-4.62 25.56c-.16.88-1.02 1.6-1.91 1.6h-4.9c-.9 0-1.5-.71-1.34-1.6l1.85-10.22-7.29 10.89c-.37.57-1.01.93-1.64.93h-6.49c-.63 0-1.14-.36-1.31-.93l-3.36-10.84-1.84 10.17c-.16.88-1.02 1.6-1.91 1.6h-4.9c-.9 0-1.5-.71-1.34-1.6l4.62-25.56c.16-.88 1.02-1.6 1.91-1.6h6.3zM644.78 218.74l16.66-25.24c.85-1.14 1.93-1.42 3.4-1.48v.03h.02v-.02c.4-.02.84-.01 1.31 0h.71c.6 0 1.26.02 2.02.02 0 0 1.43-.04 1.96 1.47l8.23 25.24c.14.42.05.93-.24 1.34-.29.41-.72.66-1.15.66h-6.56c-.46 0-.83-.28-.97-.73l-.73-2.38h-13.89l-.56.86-1.08 1.53c-.32.44-.84.73-1.35.73h-6.93c-.49 0-.89-.25-1.07-.66-.16-.44-.08-.95.22-1.37zm15.27-7.97h7.28l-2.37-7.5-4.91 7.5zM717.77 193.57l-.75 4.13c-.16.88-1.02 1.6-1.91 1.6h-7.94c-.18 0-.35.15-.38.32l-3.53 19.52c-.16.88-1.02 1.6-1.91 1.6h-5.43c-.9 0-1.5-.71-1.34-1.6l3.53-19.52c.03-.18-.09-.32-.27-.32h-7.94c-.9 0-1.5-.71-1.34-1.6l.75-4.13c.16-.88 1.02-1.6 1.91-1.6h25.2c.91.01 1.51.72 1.35 1.6zM736.74 191.98c.9 0 1.49.71 1.33 1.6l-4.62 25.57c-.16.88-1.02 1.6-1.91 1.6h-5.43c-.9 0-1.5-.71-1.34-1.6l4.62-25.57c.16-.88 1.02-1.6 1.91-1.6h5.44zM747.68 213.22l2.54-13.82c.76-4.13 4.77-7.48 8.98-7.48h15.9c.9 0 1.5.71 1.34 1.6l-.77 4.24c-.16.88-1.02 1.6-1.91 1.6h-13.84c-.54 0-1.05.43-1.15.96l-2.17 11.93c-.1.53.26.96.8.96h13.84c.9 0 1.5.71 1.34 1.6l-.78 4.34c-.16.88-1.02 1.6-1.91 1.6h-15.94c-4.22-.01-7.03-3.38-6.27-7.53zM782.48 218.74l16.66-25.24c.85-1.14 1.93-1.42 3.4-1.48v.03h.02v-.02c.4-.02.84-.01 1.31 0h.71c.6 0 1.26.02 2.02.02 0 0 1.43-.04 1.96 1.47l8.23 25.24c.14.42.05.93-.24 1.34-.29.41-.72.66-1.15.66h-6.56c-.46 0-.83-.28-.97-.73l-.73-2.38h-13.89l-.56.86-1.08 1.53c-.32.44-.84.73-1.35.73h-6.93c-.49 0-.89-.25-1.07-.66-.17-.44-.09-.95.22-1.37zm15.27-7.97h7.28l-2.37-7.5-4.91 7.5zM866.97 203.52l-1.01 5.69c-.19 1.04-1.18 1.89-2.23 1.89h-5.69c-1.05 0-1.74-.84-1.56-1.89l1-5.69c.19-1.04 1.18-1.89 2.23-1.89h5.69c1.06.01 1.75.85 1.57 1.89zM905.61 220.74c-.9 0-1.5-.71-1.34-1.6l.78-4.34c.16-.88 1.02-1.6 1.91-1.6h18.05c.54 0 1.05-.43 1.15-.96l.24-1.36c.1-.53-.26-.96-.8-.96h-12.98c-4.22 0-7.03-3.36-6.28-7.51l.53-2.93c.75-4.14 4.77-7.5 8.99-7.5h19.2c.9 0 1.5.71 1.34 1.6l-.75 4.13c-.16.88-1.02 1.6-1.91 1.6h-17.56c-.54 0-1.05.43-1.15.96l-.33 1.81c-.09.53.26.96.8.96h12.98c4.22 0 7.03 3.36 6.28 7.5l-.49 2.69c-.75 4.14-4.77 7.5-8.99 7.5H905.61zM945.91 219.14l4.63-25.62c.16-.88 1.02-1.6 1.92-1.6h24.23c.54 0 .9.43.8.96l-.98 5.43c-.09.53-.61.96-1.15.96h-16.84c-.18 0-.35.15-.38.32l-.53 2.97c-.03.18.09.32.27.32h13.55c.54 0 .9.43.8.96l-.9 4.98c-.09.53-.61.96-1.15.96h-13.55c-.18 0-.35.15-.38.32l-.5 2.77c-.03.18.09.32.27.32h16.84c.54 0 .9.43.8.96l-1.01 5.63c-.1.53-.61.96-1.15.96h-24.23c-.92 0-1.52-.72-1.36-1.6zM1019.97 193.58l-.75 4.13c-.16.88-1.02 1.6-1.91 1.6h-18.84c-.54 0-1.05.43-1.15.96l-2.15 11.93c-.1.53.26.96.8.96h11.53c.18 0 .35-.15.38-.32l.5-2.79c.03-.18-.09-.32-.27-.32h-6.2c-.54 0-.9-.43-.8-.96l.9-4.97c.1-.53.61-.96 1.15-.96h13.5c.9 0 1.5.71 1.34 1.6l-2.66 14.7c-.16.88-1.02 1.6-1.92 1.6h-.84l-20.08-.04c-4.22 0-7.03-3.37-6.27-7.52l2.47-13.67c.75-4.16 4.79-7.52 9.01-7.52h20.91c.92 0 1.51.71 1.35 1.59zM1063.42 193.49l-3.57 19.76c-.75 4.15-4.78 7.51-9 7.5h-.84l-14.1-.04c-4.2-.01-7-3.36-6.25-7.5l3.56-19.72c.16-.88 1.02-1.6 1.91-1.6h5.16c.9 0 1.49.71 1.33 1.6l-3.38 18.71c-.09.53.26.96.8.96h11.34c.54 0 1.05-.43 1.15-.96l3.38-18.71c.16-.88 1.02-1.6 1.91-1.6h5.26c.9 0 1.49.72 1.34 1.6zM1073.56 220.74c-.9 0-1.5-.71-1.34-1.6l4.62-25.6c.16-.88 1.02-1.6 1.91-1.6h20.51c4.22 0 7.03 3.36 6.27 7.51l-1.18 6.54c-.52 2.84-2.58 5.3-5.19 6.57-.19.09-.28.3-.19.46l3.38 5.88c.45.79-.11 1.75-1.02 1.75-2.83 0-4.58.09-5.73.07-1.97.03-2.62-.05-2.98-.77l-3.09-6.04c-.13-.26-.41-.42-.73-.42l-6.57.01c-.18 0-.35.15-.38.32l-.96 5.31c-.16.88-1.02 1.6-1.91 1.6l-5.42.01zm9.72-14.76c-.03.18.09.32.27.32h10.61c.8 0 1.56-.64 1.7-1.42l.78-4.3c.14-.79-.39-1.42-1.19-1.42h-10.61c-.18 0-.35.15-.38.32l-1.18 6.5zM1127.18 191.98c.9 0 1.49.71 1.33 1.6l-4.62 25.57c-.16.88-1.02 1.6-1.91 1.6h-5.43c-.9 0-1.5-.71-1.34-1.6l4.62-25.57c.16-.88 1.02-1.6 1.91-1.6h5.44zM1137.49 219.14l4.64-25.67c.16-.88 1.02-1.6 1.91-1.6h19.28c4.22 0 7.03 3.36 6.28 7.51l-2.5 13.85c-.75 4.14-4.77 7.5-8.99 7.5h-19.28c-.9.01-1.5-.7-1.34-1.59zm9.96-6.89c-.1.53.26.96.8.96h9.16c.54 0 1.05-.43 1.15-.96l2.17-11.98c.09-.53-.26-.96-.8-.96h-9.16c-.54 0-1.05.43-1.15.96l-2.17 11.98zM1176.91 218.74l16.66-25.24c.85-1.14 1.93-1.42 3.4-1.48v.03h.02v-.02c.4-.02.84-.01 1.31 0h.71c.6 0 1.26.02 2.02.02 0 0 1.43-.04 1.96 1.47l8.23 25.24c.14.42.05.93-.24 1.34-.29.41-.72.66-1.15.66h-6.56c-.46 0-.83-.28-.97-.73l-.73-2.38h-13.89l-.56.86-1.08 1.53c-.32.44-.84.73-1.35.73h-6.93c-.49 0-.89-.25-1.07-.66-.16-.44-.08-.95.22-1.37zm15.27-7.97h7.28l-2.37-7.5-4.91 7.5zM1222.74 219.14l4.64-25.67c.16-.88 1.02-1.6 1.91-1.6h19.28c4.22 0 7.03 3.36 6.28 7.51l-2.5 13.85c-.75 4.14-4.77 7.5-8.99 7.5h-19.28c-.9.01-1.5-.7-1.34-1.59zm9.96-6.89c-.1.53.26.96.8.96h9.16c.54 0 1.05-.43 1.15-.96l2.17-11.98c.09-.53-.26-.96-.8-.96h-9.16c-.54 0-1.05.43-1.15.96l-2.17 11.98z"/></g></g></switch></svg>